#!OML:ASF F:\VICON\USERDATA\INSTALL\rory3\rory3.ASF
:FULLY-SPECIFIED
:DEGREES
281
root 3.02365 15.824 -4.70844 36.3182 -3.78002 0.564501
lowerback -9.10372 1.60607 -7.5502
upperback -13.1599 2.38624 -0.735528
thorax -9.32535 1.88615 3.41969
lowerneck -14.5969 0.202668 1.38322
upperneck 23.773 0.41582 -1.80899
head 9.9707 0.114009 -0.81375
rclavicle -8.72789e-015 9.74045e-015
rhumerus 167.002 17.0774 -183.87
rradius 12.162
rwrist 114.322
rhand -23.4904 8.27611
rfingers 7.12502
rthumb 2.96954 -21.683
lclavicle -8.72789e-015 9.74045e-015
lhumerus 1.9133 14.4655 15.6891
lradius 19.7155
lwrist -39.5626
lhand 0.971553 31.9737
lfingers 7.12502
lthumb 26.5206 60.1374
rfemur 163.346 -200.639 -171.808
rtibia 32.45
rfoot -70.8126 -6.19804
rtoes 60.4046
lfemur -66.5072 4.97984 -37.0632
ltibia 54.5763
lfoot -33.724 20.4879
ltoes 1.56886
282
root 3.00158 15.8223 -4.71706 36.5439 -5.15354 0.674192
lowerback -8.85894 1.66396 -8.26373
upperback -13.2313 2.43569 -0.980517
thorax -9.6035 1.97098 3.53624
lowerneck -14.6466 0.411528 1.40539
upperneck 23.4917 0.633906 -1.56202
head 9.88324 0.244041 -0.701801
rclavicle -1.49089e-015 -2.88238e-015
rhumerus 167.243 17.3527 -183.178
rradius 12.4157
rwrist 116.535
rhand -23.3527 8.63442
rfingers 7.12502
rthumb 3.1025 -21.3228
lclavicle -1.49089e-015 -2.88238e-015
lhumerus 1.32204 15.7116 14.4422
lradius 19.3773
lwrist -40.7419
lhand 0.920035 32.2637
lfingers 7.12502
lthumb 26.4713 60.4349
rfemur 163.771 -198.883 -171.184
rtibia 32.4149
rfoot -67.7981 -7.68221
rtoes 60.5728
lfemur -66.8129 5.33713 -37.3884
ltibia 54.6411
lfoot -33.7599 20.6321
ltoes 1.08713
283
root 2.97993 15.8132 -4.7191 36.874 -6.46187 0.524099
lowerback -8.85147 1.75635 -8.7597
upperback -13.3002 2.55158 -1.14009
thorax -9.74087 2.07045 3.63231
lowerneck -14.8629 0.610653 1.37573
upperneck 23.3465 0.830827 -1.23345
head 9.87481 0.368539 -0.556198
rclavicle 1.6027e-014 -2.22639e-014
rhumerus 167.385 18.0914 -182.591
rradius 12.3257
rwrist 118.809
rhand -23.2578 8.67088
rfingers 7.12502
rthumb 3.19415 -21.2849
lclavicle 1.6027e-014 -2.22639e-014
lhumerus 0.416241 15.0353 12.8697
lradius 19.4828
lwrist -39.8748
lhand 0.848292 32.7439
lfingers 7.12502
lthumb 26.4026 60.9254
rfemur 163.946 -197.176 -170.37
rtibia 32.599
rfoot -64.5979 -10.1377
rtoes 60.588
lfemur -67.2286 5.74278 -37.4249
ltibia 54.6213
lfoot -34.0013 20.4626
ltoes 1.9253
284
root 2.95541 15.8039 -4.72848 37.1502 -7.56179 0.21978
lowerback -8.58717 1.8269 -9.1371
upperback -13.4868 2.60814 -1.17802
thorax -10.1572 2.15071 3.77763
lowerneck -14.8136 0.85271 1.28938
upperneck 23.2499 1.08638 -0.822252
head 9.83217 0.525831 -0.365387
rclavicle -4.99446e-015 1.64991e-014
rhumerus 167.456 20.0968 -182.277
rradius 12.0163
rwrist 123.049
rhand -23.3335 8.4717
rfingers 7.12502
rthumb 3.12099 -21.4852
lclavicle -4.99446e-015 1.64991e-014
lhumerus -0.507418 14.7244 11.5055
lradius 19.6832
lwrist -39.6816
lhand 1.11669 32.8193
lfingers 7.12502
lthumb 26.6595 60.9619
rfemur 164.145 -195.992 -169.261
rtibia 32.8383
rfoot -62.0135 -12.8096
rtoes 60.5923
lfemur -67.7033 6.0895 -37.1655
ltibia 54.6502
lfoot -34.031 20.6918
ltoes 2.17679
285
root 2.90983 15.8232 -4.79299 36.8219 -9.90548 0.768783
lowerback -7.20044 2.01825 -11.333
upperback -13.6212 2.68974 -1.44219
thorax -11.3614 2.44362 4.61495
lowerneck -14.4465 1.04444 1.37067
upperneck 22.8042 1.29604 -0.670606
head 9.60692 0.647377 -0.301533
rclavicle 3.03892e-014 -3.57812e-015
rhumerus 167.464 20.9813 -181.803
rradius 12.0211
rwrist 126.321
rhand -23.0066 8.46961
rfingers 7.12502
rthumb 3.43673 -21.4824
lclavicle 3.03892e-014 -3.57812e-015
lhumerus -1.26421 15.2895 10.2949
lradius 19.6557
lwrist -40.2339
lhand 1.12824 32.418
lfingers 7.12502
lthumb 26.6706 60.559
rfemur 164.339 -196.33 -169.54
rtibia 33.1326
rfoot -60.5899 -14.867
rtoes 60.4958
lfemur -67.713 6.83476 -38.0636
ltibia 54.5028
lfoot -33.9777 21.0988
ltoes 3.5046
286
root 2.89587 15.8154 -4.80697 37.1409 -11.1398 0.784433
lowerback -7.20979 2.06263 -11.9513
upperback -13.6838 2.72831 -1.61248
thorax -11.4995 2.52115 4.75899
lowerneck -14.2104 1.15271 1.47244
upperneck 22.283 1.40386 -0.604533
head 9.38124 0.713037 -0.284306
rclavicle -3.03147e-015 3.06128e-014
rhumerus 167.485 21.3725 -181.178
rradius 12.128
rwrist 128.545
rhand -22.6723 8.4907
rfingers 7.12502
rthumb 3.7596 -21.4559
lclavicle -3.03147e-015 3.06128e-014
lhumerus -1.69221 16.8737 9.31517
lradius 19.4514
lwrist -41.5971
lhand 1.08497 32.103
lfingers 7.12502
lthumb 26.6292 60.2503
rfemur 164.458 -195.388 -168.983
rtibia 33.2181
rfoot -58.2195 -18.359
rtoes 60.0934
lfemur -68.1968 7.02782 -38.2818
ltibia 54.6329
lfoot -34.1587 20.9147
ltoes 5.86383
287
root 2.89755 15.7971 -4.79774 37.6552 -11.725 0.6561
lowerback -7.48395 1.93992 -11.8386
upperback -13.8685 2.5713 -1.70459
thorax -11.5132 2.4301 4.60779
lowerneck -14.0456 1.37997 1.5422
upperneck 22.0593 1.66652 -0.450743
head 9.27483 0.857703 -0.212784
rclavicle -2.36057e-014 -2.18663e-014
rhumerus 167.189 21.2975 -180.737
rradius 12.3029
rwrist 130.171
rhand -22.7496 8.29694
rfingers 7.12502
rthumb 3.68495 -21.651
lclavicle -2.36057e-014 -2.18663e-014
lhumerus -2.38523 16.3096 8.05383
lradius 19.5109
lwrist -40.9989
lhand 1.13751 32.7369
lfingers 7.12502
lthumb 26.6794 60.8765
rfemur 164.735 -193.511 -167.995
rtibia 33.1571
rfoot -55.3147 -21.7388
rtoes 59.7037
lfemur -68.8188 6.81767 -38.1624
ltibia 54.9895
lfoot -34.8163 20.2012
ltoes 8.31716
288
root 2.8954 15.7827 -4.77604 37.9888 -12.3971 0.3222
lowerback -7.95845 1.89424 -11.5837
upperback -13.8057 2.56243 -1.81116
thorax -11.1186 2.36828 4.37947
lowerneck -14.1261 1.60171 1.59759
upperneck 21.8223 1.86894 -0.0792861
head 9.20687 0.996206 -0.0706223
rclavicle 7.35503e-015 1.03368e-014
rhumerus 166.952 19.7688 -180.155
rradius 12.5978
rwrist 129.99
rhand -22.4232 8.18396
rfingers 7.12502
rthumb 4.00014 -21.7582
lclavicle 7.35503e-015 1.03368e-014
lhumerus -3.07768 14.8404 6.63033
lradius 19.7731
lwrist -39.3807
lhand 1.26123 33.2712
lfingers 7.12502
lthumb 26.7979 61.3928
rfemur 165.225 -191.776 -166.883
rtibia 32.9814
rfoot -51.9283 -26.1563
rtoes 58.8743
lfemur -69.3248 6.79208 -37.802
ltibia 55.6108
lfoot -35.8141 19.2133
ltoes 11.2192
289
root 2.89515 15.7486 -4.74609 38.474 -12.7385 -0.581837
lowerback -8.35915 1.98713 -10.3719
upperback -13.9556 2.69111 -1.98607
thorax -10.9424 2.2892 3.53771
lowerneck -13.9557 1.76147 2.02738
upperneck 21.6114 1.93344 0.157292
head 9.10607 1.08643 -0.0564239
rclavicle 7.45443e-015 2.94201e-014
rhumerus 167.088 18.9243 -179.794
rradius 12.6179
rwrist 130.613
rhand -21.9064 8.40754
rfingers 7.12502
rthumb 4.49919 -21.5247
lclavicle 7.45443e-015 2.94201e-014
lhumerus -3.42733 14.1737 5.18609
lradius 19.839
lwrist -39.0794
lhand 1.08394 32.855
lfingers 7.12502
lthumb 26.6282 61.0025
rfemur 165.697 -189.934 -165.18
rtibia 32.6871
rfoot -46.7212 -32.4942
rtoes 57.6505
lfemur -70.0221 6.6706 -36.6772
ltibia 56.4357
lfoot -36.6619 18.6357
ltoes 13.638
290
root 2.87604 15.6991 -4.77454 38.753 -13.1776 -1.1254
lowerback -8.09384 1.95424 -9.99172
upperback -14.0773 2.58861 -2.01328
thorax -11.1889 2.20583 3.28587
lowerneck -13.8325 1.99692 2.41063
upperneck 21.3636 2.15568 0.224573
head 9.00494 1.22703 -0.073643
rclavicle -2.21645e-014 1.03368e-014
rhumerus 166.858 19.5208 -179.627
rradius 12.5289
rwrist 132.587
rhand -21.6675 8.36395
rfingers 7.12502
rthumb 4.72979 -21.5633
lclavicle -2.21645e-014 1.03368e-014
lhumerus -3.88648 13.8453 3.98777
lradius 19.9859
lwrist -38.8987
lhand 1.25864 32.956
lfingers 7.12502
lthumb 26.7954 61.0779
rfemur 166.195 -189.298 -163.678
rtibia 32.4309
rfoot -43.8799 -35.3294
rtoes 57.2357
lfemur -70.7524 6.48759 -35.803
ltibia 57.0758
lfoot -36.7272 18.5996
ltoes 14.9398
291
root 2.85818 15.6837 -4.78504 38.9119 -13.7435 -1.56348
lowerback -7.85799 1.90995 -9.9033
upperback -14.0633 2.49524 -1.96773
thorax -11.2914 2.15312 3.28112
lowerneck -14.1174 2.2624 2.60589
upperneck 21.3407 2.43302 0.374078
head 9.05466 1.3874 -0.01923
rclavicle -1.19271e-014 3.18055e-015
rhumerus 166.414 19.7712 -179.331
rradius 12.7424
rwrist 134.236
rhand -21.3983 8.22815
rfingers 7.12502
rthumb 4.98977 -21.6931
lclavicle -1.19271e-014 3.18055e-015
lhumerus -4.51125 12.3185 2.88401
lradius 20.5313
lwrist -37.2071
lhand 1.82534 34.0149
lfingers 7.12502
lthumb 27.3375 62.0525
rfemur 166.851 -189.031 -162.355
rtibia 32.1649
rfoot -42.3093 -36.3567
rtoes 57.0987
lfemur -71.1985 6.69157 -35.3049
ltibia 57.4338
lfoot -36.058 19.0891
ltoes 13.6232
292
root 2.84424 15.7072 -4.77484 38.9166 -14.8973 -1.47649
lowerback -7.61643 1.92595 -10.5497
upperback -14.0815 2.46671 -2.15216
thorax -11.5094 2.19881 3.41941
lowerneck -14.3572 2.46464 2.81311
upperneck 21.4655 2.61389 0.546366
head 9.14617 1.50717 0.0308181
rclavicle 4.60187e-014 1.98785e-014
rhumerus 166.181 19.47 -178.909
rradius 12.8326
rwrist 135.042
rhand -21.1648 8.12703
rfingers 7.12502
rthumb 5.21526 -21.7888
lclavicle 4.60187e-014 1.98785e-014
lhumerus -4.85496 11.6426 1.95191
lradius 20.7816
lwrist -36.4782
lhand 1.80289 34.2556
lfingers 7.12502
lthumb 27.3161 62.2966
rfemur 167.37 -189.072 -161.932
rtibia 31.9268
rfoot -40.0923 -37.4441
rtoes 56.7419
lfemur -71.2309 7.14039 -35.7025
ltibia 57.3934
lfoot -35.3271 19.8235
ltoes 10.9041
293
root 2.83533 15.7111 -4.77392 39.1136 -16.0389 -1.54153
lowerback -7.62055 1.9456 -10.9527
upperback -14.1177 2.46906 -2.33269
thorax -11.5848 2.22985 3.43826
lowerneck -14.3282 2.66363 3.12034
upperneck 21.3006 2.80276 0.602596
head 9.09134 1.62456 0.020154
rclavicle -4.27387e-015 -2.54444e-014
rhumerus 165.814 20.1415 -178.858
rradius 12.6806
rwrist 136.535
rhand -21.5435 7.77964
rfingers 7.12502
rthumb 4.84959 -22.1449
lclavicle -4.27387e-015 -2.54444e-014
lhumerus -5.05853 12.2731 1.05049
lradius 20.6435
lwrist -37.071
lhand 1.42519 33.7178
lfingers 7.12502
lthumb 26.9547 61.8152
rfemur 167.776 -189.038 -161.458
rtibia 31.4322
rfoot -37.7691 -38.2238
rtoes 56.5837
lfemur -71.5194 7.41993 -35.8484
ltibia 57.4688
lfoot -35.2473 20.2735
ltoes 10.1047
294
root 2.82693 15.7045 -4.7719 39.4353 -16.9313 -1.76788
lowerback -7.73438 1.92576 -11.0573
upperback -14.2645 2.42805 -2.43045
thorax -11.6968 2.2189 3.3867
lowerneck -14.0427 2.86218 3.4137
upperneck 21.1535 2.99791 0.692606
head 8.99535 1.74744 0.0201843
rclavicle 5.06901e-015 1.51076e-014
rhumerus 165.368 19.8979 -178.733
rradius 12.728
rwrist 137.514
rhand -21.4465 7.66163
rfingers 7.12502
rthumb 4.94323 -22.2607
lclavicle 5.06901e-015 1.51076e-014
lhumerus -5.33464 12.2704 0.167002
lradius 20.5445
lwrist -37.3024
lhand 1.03921 33.2355
lfingers 7.12502
lthumb 26.5854 61.3894
rfemur 168.088 -188.503 -160.769
rtibia 31.117
rfoot -35.5772 -40.2832
rtoes 56.6121
lfemur -71.9079 7.62083 -35.7475
ltibia 57.5924
lfoot -35.3873 20.5928
ltoes 9.84819
295
root 2.81893 15.6574 -4.79177 39.5897 -17.7782 -1.87248
lowerback -7.70663 1.9267 -11.2688
upperback -14.5275 2.38735 -2.5152
thorax -12.0502 2.23405 3.39256
lowerneck -13.1639 2.90845 3.39599
upperneck 20.9336 3.04225 0.962059
head 8.75435 1.79329 0.103655
rclavicle -2.3059e-014 5.56597e-014
rhumerus 165.051 18.2166 -178.196
rradius 12.8761
rwrist 137.246
rhand -20.719 7.76912
rfingers 7.12502
rthumb 5.64564 -22.1357
lclavicle -2.3059e-014 5.56597e-014
lhumerus -5.56386 11.5003 -0.519533
lradius 20.564
lwrist -37.3468
lhand 0.723531 32.9071
lfingers 7.12502
lthumb 26.2832 61.1065
rfemur 169.298 -188.218 -160.161
rtibia 30.9726
rfoot -45.6939 -21.7398
rtoes 60.7567
lfemur -72.4657 7.91691 -35.8944
ltibia 58.0093
lfoot -35.5276 20.952
ltoes 9.2589
